<?xml version="1.0" encoding="iso-8859-1"?>
<!-- Generator: Adobe Illustrator 19.0.0, SVG Export Plug-In . SVG Version: 6.00 Build 0)  -->
<svg version="1.1" id="Capa_1" xmlns="http://www.w3.org/2000/svg" xmlns:xlink="http://www.w3.org/1999/xlink" x="0px" y="0px"
	 viewBox="0 0 488.4 488.4" style="enable-background:new 0 0 488.4 488.4;" xml:space="preserve">
<g>
	<g>
		<path d="M68.2,0v488.4l288.4-80.6l63.6,80.6V0H68.2z M198.5,40.3c34.1,0,61.6,27.5,61.6,61.6h-61.6L198.5,40.3L198.5,40.3z
			 M166.3,72.5v61.6h61.6c0,34.1-27.5,61.6-61.6,61.6s-61.6-27.9-61.6-62C104.6,99.6,132.6,72.5,166.3,72.5z M381.8,377.2H105.4
			c-5.4,0-10.1-4.3-10.1-10.1c0-5.4,4.3-10.1,10.1-10.1h276c5.4,0,10.1,4.3,10.1,10.1C391.5,372.5,387.2,377.2,381.8,377.2z
			 M381.8,309.3H105.4c-5.4,0-10.1-4.3-10.1-10.1s4.3-10.1,10.1-10.1h276c5.4,0,10.1,4.3,10.1,10.1S387.2,309.3,381.8,309.3z
			 M381.8,241.1H105.4c-5.4,0-10.1-4.3-10.1-10.1s4.3-10.1,10.1-10.1h276c5.4,0,10.1,4.3,10.1,10.1
			C391.5,236.8,387.2,241.1,381.8,241.1z M381.8,173.3h-84.9c-5.4,0-10.1-4.3-10.1-10.1s4.3-10.1,10.1-10.1h84.9
			c5.4,0,10.1,4.3,10.1,10.1S387.2,173.3,381.8,173.3z M381.8,105.4h-84.9c-5.4,0-10.1-4.3-10.1-10.1c0-5.4,4.3-10.1,10.1-10.1h84.9
			c5.4,0,10.1,4.3,10.1,10.1C391.5,100.8,387.2,105.4,381.8,105.4z"/>
		<polygon points="149.9,488.4 392.2,488.4 348.4,432.9 		"/>
	</g>
</g>
<g>
</g>
<g>
</g>
<g>
</g>
<g>
</g>
<g>
</g>
<g>
</g>
<g>
</g>
<g>
</g>
<g>
</g>
<g>
</g>
<g>
</g>
<g>
</g>
<g>
</g>
<g>
</g>
<g>
</g>
</svg>
